<svg width="14" height="13" viewBox="0 0 14 13" fill="none" xmlns="http://www.w3.org/2000/svg">
<path d="M5.61377 12.066C5.12236 12.066 4.73721 11.9 4.41182 11.5215L0.991895 7.49063C0.699707 7.15859 0.600098 6.87305 0.600098 6.52773C0.600098 5.76406 1.17119 5.19961 1.95479 5.19961C2.39971 5.19961 2.7251 5.35234 3.004 5.68438L5.58721 8.77227L10.7337 0.697266C11.0591 0.192578 11.3978 0 11.9224 0C12.6993 0 13.2903 0.564453 13.2903 1.31484C13.2903 1.59375 13.204 1.89258 12.9981 2.19805L6.86221 11.4418C6.57666 11.8668 6.1583 12.066 5.61377 12.066Z" fill="white"/>
</svg>
