<svg xmlns="http://www.w3.org/2000/svg" width="16" height="16" viewBox="0 0 16 16" fill="none">
  <g clip-path="url(#clip0_2_177)">
    <path d="M8 16C12.4183 16 16 12.4183 16 8C16 3.58171 12.4183 0 8 0C3.58171 0 0 3.58171 0 8C0 12.4183 3.58171 16 8 16Z" fill="#0098EA"/>
    <path d="M10.7315 4.46506H5.26819C4.26368 4.46506 3.62699 5.54863 4.13236 6.4246L7.50414 12.2688C7.72416 12.6504 8.27557 12.6504 8.49559 12.2688L11.8681 6.4246C12.3727 5.55003 11.7361 4.46506 10.7322 4.46506H10.7315ZM7.50139 10.5162L6.76708 9.09506L4.99525 5.92611C4.87836 5.72329 5.02274 5.46337 5.26751 5.46337H7.50071V10.5169L7.50139 10.5162ZM11.0031 5.92543L9.23196 9.09574L8.49765 10.5162V5.46269H10.7309C10.9756 5.46269 11.12 5.7226 11.0031 5.92543Z" fill="white"/>
  </g>
  <defs>
    <clipPath id="clip0_2_177">
      <rect width="16" height="16" fill="white"/>
    </clipPath>
  </defs>
</svg>