<svg width="256" height="218" viewBox="0 0 256 218" fill="none" xmlns="http://www.w3.org/2000/svg">
<path d="M255.307 86.3671L255.5 86.217V85.9728V1V0.5H255H87.004H86.504V1V90.8094V91.3094H87.004H147.936V126.157H87.004H86.504V126.657V216.466V216.966H87.004H255H255.5V216.466V131.494V131.249L255.307 131.099L226.616 108.733L255.307 86.3671ZM144.474 55.178H143.974V55.678V80.3094H97.504V11.5H244.5V80.8445L209.229 108.339L208.724 108.733L209.229 109.128L244.5 136.622V205.966H97.504V137.157H143.974V161.788V162.288H144.474H197.53H198.03V161.788V153.411V153.167L197.837 153.017L158.936 122.73V94.7365L197.837 64.4497L198.03 64.2996V64.0552V55.678V55.178H197.53H144.474ZM154.974 66.178H177.711L154.974 83.8802V66.178ZM154.974 133.586L177.711 151.288H154.974V133.586Z" stroke="white" stroke-opacity="0.15"/>
<path d="M79.6399 216.966H80.1399V216.466V1V0.5H79.6399H1H0.5V1V65.678V66.178H1H11.6695V216.466V216.966H12.1695H79.6399ZM22.6695 55.678V55.178H22.1695H11.5V11.5H69.1399V205.966H22.6695V55.678Z" stroke="white" stroke-opacity="0.15"/>
<path d="M248.074 85.0321L250 83.5307V81.0887V11V6H245H97.004H92.004V11V80.8094V85.8094H97.004H144.474H149.474V80.8094V60.678H192.53V61.6113L155.365 90.5468L153.436 92.0482V94.4921V122.974V125.418L155.365 126.92L192.53 155.855V156.788H149.474V136.657V131.657H144.474H97.004H92.004V136.657V206.466V211.466H97.004H245H250V206.466V136.378V133.936L248.074 132.434L217.669 108.733L248.074 85.0321Z" fill="#D82000" stroke="black" stroke-width="10"/>
<path d="M69.6399 211.466H74.6399V206.466V11V6H69.6399H11H6V11V55.678V60.678H11H17.1695V206.466V211.466H22.1695H69.6399Z" fill="#D82000" stroke="black" stroke-width="10"/>
</svg>
