<svg width="292" height="467" viewBox="0 0 292 467" fill="none" xmlns="http://www.w3.org/2000/svg">
<path d="M215.293 458.793C214.902 459.183 214.902 459.817 215.293 460.207L221.657 466.571C222.047 466.962 222.681 466.962 223.071 466.571C223.462 466.181 223.462 465.547 223.071 465.157L217.414 459.5L223.071 453.843C223.462 453.453 223.462 452.819 223.071 452.429C222.681 452.038 222.047 452.038 221.657 452.429L215.293 458.793ZM2.5 373.5V21H0.5V373.5H2.5ZM21.5 2H270.5V0H21.5V2ZM289.5 21V439.5H291.5V21H289.5ZM270.5 458.5H216V460.5H270.5V458.5ZM289.5 439.5C289.5 449.993 280.993 458.5 270.5 458.5V460.5C282.098 460.5 291.5 451.098 291.5 439.5H289.5ZM270.5 2C280.993 2 289.5 10.5066 289.5 21H291.5C291.5 9.40202 282.098 0 270.5 0V2ZM2.5 21C2.5 10.5066 11.0066 2 21.5 2V0C9.90202 0 0.5 9.40202 0.5 21H2.5Z" fill="#B80000"/>
</svg>
